<svg xmlns="http://www.w3.org/2000/svg" version="1.1" xmlns:xlink="http://www.w3.org/1999/xlink" xmlns:svgjs="http://svgjs.dev/svgjs" viewBox="0 0 800 400"><path d="M335.4839172363281,272.7598876953125C334.8865458170573,267.9809163411458,333.6918029785156,268.27960713704425,333.6918029785156,258.4229736328125C333.6918029785156,248.56634012858072,333.0944315592448,253.34530639648438,335.4839172363281,243.1899871826172C337.87340291341144,233.03466796875,335.4839172363281,236.0215301513672,340.8602600097656,227.95701599121094C346.2366027832031,219.8925018310547,344.74317423502606,223.17804972330728,351.6129455566406,218.99644470214844C358.4827168782552,214.8148396809896,354.3011169433594,216.90563456217447,361.4695739746094,215.41220092773438C368.6380310058594,213.91876729329428,365.6511739095052,214.81482950846353,373.1183166503906,214.51614379882812C380.58545939127606,214.21745808919272,376.7025451660156,213.32140096028647,383.8710021972656,214.51614379882812C391.0394592285156,215.71088663736978,388.64996337890625,215.71088155110678,394.6236877441406,218.10037231445312C400.597412109375,220.48986307779947,396.7145080566406,219.29512532552084,401.79217529296875,221.6846160888672C406.8698425292969,224.07410685221353,403.8829752604167,222.58067321777344,409.856689453125,225.2688446044922C415.8304036458333,227.95701599121094,414.0382893880208,228.55438741048178,419.71331787109375,229.74913024902344C425.3883463541667,230.9438730875651,420.609375,230.34650166829428,426.88177490234375,228.8530731201172C433.1541748046875,227.3596445719401,431.362060546875,228.25570170084634,438.530517578125,225.2688446044922C445.698974609375,222.28198750813803,441.5173746744792,224.07410685221353,448.38714599609375,219.8925018310547C455.2569173177083,215.71089680989584,453.16611735026044,217.80169169108072,459.13983154296875,212.72402954101562C465.11354573567706,207.64636739095053,462.4253743489583,211.23060099283853,466.30828857421875,204.65951538085938C470.1912027994792,198.08842976888022,468.10040283203125,201.37397257486978,470.78857421875,193.01077270507812C473.47674560546875,184.64757283528647,471.9833170572917,186.14100138346353,474.372802734375,179.56991577148438C476.7622884114583,172.99883015950522,473.47674560546875,177.18043518066406,477.95703125,173.29751586914062C482.43731689453125,169.4145965576172,478.5543924967448,170.011962890625,487.81365966796875,167.92115783691406C497.0729268391927,165.83035278320312,496.17689005533856,167.92115783691406,505.7348327636719,167.0251007080078C515.2927754720052,166.12904357910156,512.9032694498698,165.83035786946616,516.4874877929688,165.2329864501953" fill="none" stroke-width="21" stroke="url(&quot;#SvgjsLinearGradient1004&quot;)" stroke-linecap="round" stroke-dasharray="124 0"></path><defs><linearGradient id="SvgjsLinearGradient1004"><stop stop-color="hsl(0, 93%, 32%)" offset="0"></stop><stop stop-color="hsl(353, 98%, 41%)" offset="1"></stop></linearGradient></defs></svg>