<svg xmlns="http://www.w3.org/2000/svg" version="1.1" xmlns:xlink="http://www.w3.org/1999/xlink" xmlns:svgjs="http://svgjs.dev/svgjs" viewBox="0 0 800 400"><path d="M294.2652587890625,200.17922973632812C292.48210510253904,200.17922973632812,293.64399251302086,199.2876528930664,288.888916015625,200.17922973632812C284.13383951822914,201.07080657958986,287.6553440348307,200.1926705932617,279.9283447265625,202.86740112304688C272.2013454182943,205.54213165283204,271.83246856689453,204.38024424235027,265.5914306640625,208.24374389648438C259.35039276123047,212.10724355061848,263.4886832682292,210.05825452168781,261.11114501953125,214.51614379882812C258.7336067708333,218.97403307596844,259.3145504760742,216.92953453063964,258.4229736328125,221.6846160888672C257.5313967895508,226.43969764709473,258.12578135172527,223.50361206054689,258.4229736328125,228.8530731201172C258.72016591389973,234.2025341796875,256.9414925130208,230.97822194417319,259.31903076171875,237.8136444091797C261.6965690104167,244.6490668741862,263.21389241536457,244.7073105875651,265.5914306640625,249.46238708496094C267.96896891276043,254.21746358235677,265.2987186686198,247.98986147562664,266.48748779296875,252.1505584716797C267.6762569173177,256.31125546773274,268.2840823364258,255.46896690368652,269.1756591796875,262.0072021484375C270.0672360229492,268.5454373931885,270.0672360229492,264.7312158203125,269.1756591796875,271.86383056640625C268.2840823364258,278.9964453125,269.7566028849284,277.86591990152994,266.48748779296875,283.5125732421875C263.2183727010091,289.15922658284506,265.26287638346355,286.51137776692707,259.31903076171875,288.888916015625C253.37518513997395,291.26645426432293,255.99615730285643,289.19506886800133,248.56634521484375,290.6810302734375C241.13653312683107,292.16699167887367,243.75301480611165,291.28885569254555,236.91758728027344,293.36920166015625C230.08215975443522,295.44954762776695,232.71209248860677,294.2786996459961,227.95701599121094,296.95343017578125C223.2019394938151,299.6281607055664,228.52451883951824,297.27302388509116,222.58067321777344,301.4337158203125C216.63682759602864,305.59440775553384,213.6021807861328,305.0403457641602,210.03587341308594,309.49822998046875C206.46956604003907,313.9561141967773,212.4223722330729,310.7138808186849,211.82798767089844,314.87457275390625C211.23360310872397,319.0352646891276,209.72972056070964,314.0188280741374,208.24375915527344,322.04302978515625C206.75779774983724,330.0672314961751,208.23927886962892,331.04394404093426,207.3477020263672,339.0681457519531C206.45612518310546,347.092347462972,205.25839548746745,339.9955648803711,205.5555877685547,346.2366027832031C205.85278004964192,352.47764068603516,207.05499003092447,352.2386921183268,208.24375915527344,357.8853454589844C209.4325282796224,363.53199879964194,208.84262400309245,361.4785345458984,209.1398162841797,363.2616882324219" fill="none" stroke-width="22" stroke="url(&quot;#SvgjsLinearGradient1005&quot;)" stroke-linecap="round" stroke-dasharray="125 0"></path><defs><linearGradient id="SvgjsLinearGradient1005"><stop stop-color="hsl(353, 98%, 41%)" offset="0"></stop><stop stop-color="hsl(353, 86%, 32%)" offset="1"></stop></linearGradient></defs></svg>