<svg xmlns="http://www.w3.org/2000/svg" version="1.1" xmlns:xlink="http://www.w3.org/1999/xlink" xmlns:svgjs="http://svgjs.dev/svgjs" viewBox="0 0 800 400"><path d="M404.4803466796875,212.9032440185547C405.6750895182292,213.64995829264322,409.2593180338542,216.03944396972656,411.6488037109375,217.38352966308594C414.0382893880208,218.7276153564453,416.12908935546875,219.77301534016928,418.8172607421875,220.96775817871094C421.50543212890625,222.1625010172526,424.94031778971356,223.8052724202474,427.77783203125,224.55198669433594C430.61534627278644,225.29870096842447,433.0048319498698,225.29870096842447,435.84234619140625,225.4480438232422C438.6798604329427,225.5973866780599,441.5173746744792,225.4480438232422,444.80291748046875,225.4480438232422C448.0884602864583,225.4480438232422,452.56874593098956,225.00001525878906,455.55560302734375,225.4480438232422C458.54246012369794,225.8960723876953,460.93194580078125,227.09081522623697,462.72406005859375,228.13621520996094C464.51617431640625,229.1816151936849,465.11354573567706,230.37635803222656,466.30828857421875,231.72044372558594C467.50303141276044,233.0645294189453,468.69777425130206,233.81124369303384,469.89251708984375,236.2007293701172C471.08725992838544,238.59021504720053,472.28200276692706,243.51852671305338,473.47674560546875,246.05735778808594C474.67148844401044,248.5961888631185,476.46360270182294,250.08962758382162,477.06097412109375,251.4337158203125C477.65834554036456,252.77780405680338,476.7622884114583,253.07648722330728,477.06097412109375,254.12188720703125C477.3596598307292,255.16728719075522,478.25571695963544,256.3620300292969,478.85308837890625,257.70611572265625C479.45045979817706,259.0502014160156,480.3465169270833,260.5436299641927,480.64520263671875,262.1864013671875C480.9438883463542,263.8291727701823,480.04783121744794,265.7706298828125,480.64520263671875,267.562744140625C481.24257405598956,269.3548583984375,483.03468831380206,271.44565836588544,484.22943115234375,272.9390869140625C485.42417399088544,274.43251546223956,486.02154032389325,275.62725830078125,487.81365966796875,276.5233154296875C489.60577901204425,277.41937255859375,491.9952850341797,278.01674397786456,494.9821472167969,278.3154296875C497.96900939941406,278.61411539713544,503.34534708658856,278.3154296875,505.7348327636719,278.3154296875C508.1243184407552,278.3154296875,507.228266398112,278.4647725423177,509.3190612792969,278.3154296875C511.40985616048175,278.1660868326823,516.1888071695963,277.56871541341144,518.2796020507812,277.41937255859375C520.3703969319662,277.27002970377606,520.2210591634115,276.9713439941406,521.8638305664062,277.41937255859375C523.506601969401,277.8674011230469,526.6428019205729,279.21148681640625,528.13623046875,280.1075439453125C529.6296590169271,281.00360107421875,530.2270304361979,281.4516296386719,530.8244018554688,282.79571533203125C531.4217732747396,284.1398010253906,531.2724304199219,286.23060099283856,531.720458984375,288.17205810546875C532.1684875488281,290.11351521809894,533.0645446777344,292.5030008951823,533.5125732421875,294.4444580078125C533.9606018066406,296.3859151204427,534.259287516276,297.73000081380206,534.4086303710938,299.82080078125C534.5579732259115,301.91160074869794,534.4086303710938,305.0478006998698,534.4086303710938,306.9892578125C534.4086303710938,308.9307149251302,534.4086303710938,309.3787384033203,534.4086303710938,311.46954345703125C534.4086303710938,313.5603485107422,534.259287516276,317.4432830810547,534.4086303710938,319.5340881347656C534.5579732259115,321.62489318847656,534.7073059082031,322.6702880859375,535.3046875,324.0143737792969C535.9020690917969,325.35845947265625,537.2461954752604,326.8518880208333,537.992919921875,327.5986022949219C538.7396443684896,328.34531656901044,539.1876627604166,327.8972880045573,539.7850341796875,328.4946594238281C540.3824055989584,329.09203084309894,540.3824055989584,330.13743082682294,541.5771484375,331.1828308105469C542.7718912760416,332.2282307942708,545.161376953125,333.72165934244794,546.9534912109375,334.7670593261719C548.74560546875,335.8124593098958,550.3883768717448,336.5591735839844,552.329833984375,337.4552307128906C554.2712910970052,338.3512878417969,557.5568339029948,339.69537353515625,558.6022338867188,340.1434020996094" fill="none" stroke-width="25" stroke="url(&quot;#SvgjsLinearGradient1006&quot;)" stroke-linecap="round"></path><defs><linearGradient id="SvgjsLinearGradient1006"><stop stop-color="hsl(353, 94%, 26%)" offset="0"></stop><stop stop-color="hsl(353, 98%, 41%)" offset="1"></stop></linearGradient></defs></svg>