<svg xmlns="http://www.w3.org/2000/svg" version="1.1" xmlns:xlink="http://www.w3.org/1999/xlink" xmlns:svgjs="http://svgjs.dev/svgjs" viewBox="0 0 800 400"><path d="M296.057373046875,315.7706298828125C288.2915445963542,312.48508707682294,288.888916015625,312.1864013671875,272.7598876953125,305.91400146484375C256.630859375,299.6416015625,260.51377868652344,305.6153157552083,247.6702880859375,296.95343017578125C234.82679748535156,288.2915445963542,239.60576375325522,291.2784016927083,234.2294158935547,279.9283447265625C228.85306803385416,268.5782877604167,232.4373016357422,275.1493784586589,231.54124450683594,262.90325927734375C230.6451873779297,250.65714009602866,229.1517588297526,256.0334777832031,231.54124450683594,243.1899871826172C233.93073018391928,230.34649658203125,233.93072509765625,236.02153523763022,238.70970153808594,224.37278747558594C243.48867797851562,212.72403971354166,240.50182596842447,216.90563456217447,245.878173828125,208.24374389648438C251.25452168782553,199.58185323079428,248.26765950520834,205.85425821940103,254.8387451171875,198.38711547851562C261.4098307291667,190.91997273763022,257.52691650390625,193.30945841471353,265.5914306640625,185.84231567382812C273.65594482421875,178.37517293294272,270.66908772786456,183.75152079264322,279.03228759765625,175.98568725585938C287.39548746744794,168.21985371907553,285.60337320963544,174.19356282552084,290.6810302734375,162.54481506347656C295.75868733723956,150.89606730143228,293.6678873697917,153.58424631754556,294.2652587890625,141.03944396972656C294.8626302083333,128.49464162190756,294.2652587890625,134.7670415242513,292.47314453125,124.91040802001953C290.6810302734375,115.05377451578777,292.47314453125,119.83274586995442,288.888916015625,111.46954345703125C285.3046875,103.10634104410808,287.6941731770833,106.39188893636067,281.720458984375,99.82080078125C275.7467447916667,93.24971262613933,277.5388590494792,96.53525288899739,270.9677734375,91.75627899169922C264.3966878255208,86.97730509440105,264.9940592447917,87.57467905680339,262.0072021484375,85.48387908935547" fill="none" stroke-width="19" stroke="url(&quot;#SvgjsLinearGradient1002&quot;)" stroke-linecap="round" stroke-dasharray="123 0" stroke-opacity="1"></path><defs><linearGradient id="SvgjsLinearGradient1002"><stop stop-color="hsl(353, 98%, 41%)" offset="0"></stop><stop stop-color="hsl(0, 83%, 20%)" offset="1"></stop></linearGradient></defs></svg>